<?xml version="1.0" encoding="UTF-8" standalone="no"?>
<!DOCTYPE svg PUBLIC "-//W3C//DTD SVG 1.1//EN"
 "http://www.w3.org/Graphics/SVG/1.1/DTD/svg11.dtd">
<!-- Generated by graphviz version 11.0.0 (20240428.1522)
 -->
<!-- Title: G Pages: 1 -->
<svg width="2141pt" height="492pt"
 viewBox="0.00 0.00 2141.00 492.00" xmlns="http://www.w3.org/2000/svg" xmlns:xlink="http://www.w3.org/1999/xlink">
<g id="graph0" class="graph" transform="scale(1 1) rotate(0) translate(4 488)">
<title>G</title>
<polygon fill="white" stroke="none" points="-4,4 -4,-488 2137,-488 2137,4 -4,4"/>
<g id="clust1" class="cluster">
<title>cluster_node4</title>
<polygon fill="none" stroke="black" points="8,-80 8,-420 568,-420 568,-80 8,-80"/>
</g>
<g id="clust2" class="cluster">
<title>cluster_node16</title>
<polygon fill="none" stroke="black" points="576,-8 576,-420 2125,-420 2125,-8 576,-8"/>
</g>
<!-- node0 -->
<g id="node1" class="node">
<title>node0</title>
<ellipse fill="none" stroke="black" cx="918" cy="-466" rx="106.45" ry="18"/>
<text text-anchor="middle" x="918" y="-460.57" font-family="Times New Roman,serif" font-size="14.00">Program (TestSideEffect)</text>
</g>
<!-- node4 -->
<g id="node2" class="node">
<title>node4</title>
<ellipse fill="none" stroke="black" cx="478" cy="-394" rx="61.04" ry="18"/>
<text text-anchor="middle" x="478" y="-388.57" font-family="Times New Roman,serif" font-size="14.00">Method (foo)</text>
</g>
<!-- node0&#45;&gt;node4 -->
<g id="edge1" class="edge">
<title>node0&#45;&gt;node4</title>
<path fill="none" stroke="black" d="M826.78,-456.42C756.7,-449.04 657.73,-436.9 572,-420 558.54,-417.35 544.15,-413.86 530.79,-410.33"/>
<polygon fill="black" stroke="black" points="531.87,-407 521.3,-407.78 530.05,-413.76 531.87,-407"/>
</g>
<!-- node16 -->
<g id="node11" class="node">
<title>node16</title>
<ellipse fill="none" stroke="black" cx="1209" cy="-394" rx="65.53" ry="18"/>
<text text-anchor="middle" x="1209" y="-388.57" font-family="Times New Roman,serif" font-size="14.00">Method (main)</text>
</g>
<!-- node0&#45;&gt;node16 -->
<g id="edge10" class="edge">
<title>node0&#45;&gt;node16</title>
<path fill="none" stroke="black" d="M977.59,-450.67C1027.99,-438.54 1099.81,-421.27 1150.03,-409.19"/>
<polygon fill="black" stroke="black" points="1150.66,-412.63 1159.56,-406.89 1149.02,-405.83 1150.66,-412.63"/>
</g>
<!-- node5 -->
<g id="node3" class="node">
<title>node5</title>
<ellipse fill="none" stroke="black" cx="458" cy="-322" rx="32.6" ry="18"/>
<text text-anchor="middle" x="458" y="-316.57" font-family="Times New Roman,serif" font-size="14.00">Block</text>
</g>
<!-- node4&#45;&gt;node5 -->
<g id="edge2" class="edge">
<title>node4&#45;&gt;node5</title>
<path fill="none" stroke="black" d="M473.06,-375.7C470.92,-368.24 468.38,-359.32 465.99,-350.97"/>
<polygon fill="black" stroke="black" points="469.42,-350.21 463.3,-341.56 462.68,-352.14 469.42,-350.21"/>
</g>
<!-- node10 -->
<g id="node4" class="node">
<title>node10</title>
<ellipse fill="none" stroke="black" cx="288" cy="-250" rx="97.97" ry="18"/>
<text text-anchor="middle" x="288" y="-244.57" font-family="Times New Roman,serif" font-size="14.00">BinOpAssignment (+=)</text>
</g>
<!-- node5&#45;&gt;node10 -->
<g id="edge3" class="edge">
<title>node5&#45;&gt;node10</title>
<path fill="none" stroke="black" d="M432.55,-310.52C407.33,-300.14 368.07,-283.97 336.82,-271.1"/>
<polygon fill="black" stroke="black" points="338.54,-268.03 327.96,-267.46 335.88,-274.5 338.54,-268.03"/>
</g>
<!-- node15 -->
<g id="node8" class="node">
<title>node15</title>
<ellipse fill="none" stroke="black" cx="458" cy="-250" rx="35.6" ry="18"/>
<text text-anchor="middle" x="458" y="-244.57" font-family="Times New Roman,serif" font-size="14.00">Return</text>
</g>
<!-- node5&#45;&gt;node15 -->
<g id="edge7" class="edge">
<title>node5&#45;&gt;node15</title>
<path fill="none" stroke="black" d="M458,-303.7C458,-296.41 458,-287.73 458,-279.54"/>
<polygon fill="black" stroke="black" points="461.5,-279.62 458,-269.62 454.5,-279.62 461.5,-279.62"/>
</g>
<!-- node7 -->
<g id="node5" class="node">
<title>node7</title>
<ellipse fill="none" stroke="black" cx="118" cy="-178" rx="102.46" ry="18"/>
<text text-anchor="middle" x="118" y="-172.57" font-family="Times New Roman,serif" font-size="14.00">Designator (Kind: Static)</text>
</g>
<!-- node10&#45;&gt;node7 -->
<g id="edge4" class="edge">
<title>node10&#45;&gt;node7</title>
<path fill="none" stroke="black" d="M249.42,-233.12C225.14,-223.12 193.57,-210.12 167.46,-199.37"/>
<polygon fill="black" stroke="black" points="168.99,-196.21 158.41,-195.64 166.33,-202.68 168.99,-196.21"/>
</g>
<!-- node9 -->
<g id="node7" class="node">
<title>node9</title>
<ellipse fill="none" stroke="black" cx="288" cy="-178" rx="49.57" ry="18"/>
<text text-anchor="middle" x="288" y="-172.57" font-family="Times New Roman,serif" font-size="14.00">IntCon (1)</text>
</g>
<!-- node10&#45;&gt;node9 -->
<g id="edge6" class="edge">
<title>node10&#45;&gt;node9</title>
<path fill="none" stroke="black" d="M288,-231.7C288,-224.41 288,-215.73 288,-207.54"/>
<polygon fill="black" stroke="black" points="291.5,-207.62 288,-197.62 284.5,-207.62 291.5,-207.62"/>
</g>
<!-- node6 -->
<g id="node6" class="node">
<title>node6</title>
<ellipse fill="none" stroke="black" cx="118" cy="-106" rx="55.06" ry="18"/>
<text text-anchor="middle" x="118" y="-100.58" font-family="Times New Roman,serif" font-size="14.00">Var (global)</text>
</g>
<!-- node7&#45;&gt;node6 -->
<g id="edge5" class="edge">
<title>node7&#45;&gt;node6</title>
<path fill="none" stroke="black" d="M118,-159.7C118,-152.41 118,-143.73 118,-135.54"/>
<polygon fill="black" stroke="black" points="121.5,-135.62 118,-125.62 114.5,-135.62 121.5,-135.62"/>
</g>
<!-- node14 -->
<g id="node9" class="node">
<title>node14</title>
<ellipse fill="none" stroke="black" cx="458" cy="-178" rx="102.46" ry="18"/>
<text text-anchor="middle" x="458" y="-172.57" font-family="Times New Roman,serif" font-size="14.00">Designator (Kind: Static)</text>
</g>
<!-- node15&#45;&gt;node14 -->
<g id="edge8" class="edge">
<title>node15&#45;&gt;node14</title>
<path fill="none" stroke="black" d="M458,-231.7C458,-224.41 458,-215.73 458,-207.54"/>
<polygon fill="black" stroke="black" points="461.5,-207.62 458,-197.62 454.5,-207.62 461.5,-207.62"/>
</g>
<!-- node13 -->
<g id="node10" class="node">
<title>node13</title>
<ellipse fill="none" stroke="black" cx="458" cy="-106" rx="55.06" ry="18"/>
<text text-anchor="middle" x="458" y="-100.58" font-family="Times New Roman,serif" font-size="14.00">Var (global)</text>
</g>
<!-- node14&#45;&gt;node13 -->
<g id="edge9" class="edge">
<title>node14&#45;&gt;node13</title>
<path fill="none" stroke="black" d="M458,-159.7C458,-152.41 458,-143.73 458,-135.54"/>
<polygon fill="black" stroke="black" points="461.5,-135.62 458,-125.62 454.5,-135.62 461.5,-135.62"/>
</g>
<!-- node17 -->
<g id="node12" class="node">
<title>node17</title>
<ellipse fill="none" stroke="black" cx="1429" cy="-322" rx="32.6" ry="18"/>
<text text-anchor="middle" x="1429" y="-316.57" font-family="Times New Roman,serif" font-size="14.00">Block</text>
</g>
<!-- node16&#45;&gt;node17 -->
<g id="edge11" class="edge">
<title>node16&#45;&gt;node17</title>
<path fill="none" stroke="black" d="M1250.64,-379.75C1290.78,-366.98 1351.03,-347.81 1390.19,-335.35"/>
<polygon fill="black" stroke="black" points="1391.22,-338.7 1399.68,-332.33 1389.09,-332.02 1391.22,-338.7"/>
</g>
<!-- node23 -->
<g id="node13" class="node">
<title>node23</title>
<ellipse fill="none" stroke="black" cx="869" cy="-250" rx="54.06" ry="18"/>
<text text-anchor="middle" x="869" y="-244.57" font-family="Times New Roman,serif" font-size="14.00">Assignment</text>
</g>
<!-- node17&#45;&gt;node23 -->
<g id="edge12" class="edge">
<title>node17&#45;&gt;node23</title>
<path fill="none" stroke="black" d="M1396.93,-317.87C1322.03,-310.45 1129.84,-290.66 970,-268 956.04,-266.02 941.04,-263.64 926.98,-261.29"/>
<polygon fill="black" stroke="black" points="927.88,-257.89 917.43,-259.67 926.71,-264.79 927.88,-257.89"/>
</g>
<!-- node31 -->
<g id="node18" class="node">
<title>node31</title>
<ellipse fill="none" stroke="black" cx="1033" cy="-250" rx="54.06" ry="18"/>
<text text-anchor="middle" x="1033" y="-244.57" font-family="Times New Roman,serif" font-size="14.00">Assignment</text>
</g>
<!-- node17&#45;&gt;node31 -->
<g id="edge17" class="edge">
<title>node17&#45;&gt;node31</title>
<path fill="none" stroke="black" d="M1397.11,-317.07C1337.58,-309.47 1205.63,-291.45 1096,-268 1092,-267.14 1087.87,-266.19 1083.73,-265.19"/>
<polygon fill="black" stroke="black" points="1084.86,-261.86 1074.31,-262.8 1083.14,-268.65 1084.86,-261.86"/>
</g>
<!-- node39 -->
<g id="node24" class="node">
<title>node39</title>
<ellipse fill="none" stroke="black" cx="1203" cy="-250" rx="97.97" ry="18"/>
<text text-anchor="middle" x="1203" y="-244.57" font-family="Times New Roman,serif" font-size="14.00">BinOpAssignment (++)</text>
</g>
<!-- node17&#45;&gt;node39 -->
<g id="edge23" class="edge">
<title>node17&#45;&gt;node39</title>
<path fill="none" stroke="black" d="M1401.29,-312.42C1366.88,-301.76 1307.24,-283.29 1262.34,-269.38"/>
<polygon fill="black" stroke="black" points="1263.59,-266.1 1253,-266.49 1261.51,-272.79 1263.59,-266.1"/>
</g>
<!-- node44 -->
<g id="node28" class="node">
<title>node44</title>
<ellipse fill="none" stroke="black" cx="1359" cy="-250" rx="40.09" ry="18"/>
<text text-anchor="middle" x="1359" y="-244.57" font-family="Times New Roman,serif" font-size="14.00">IntRead</text>
</g>
<!-- node17&#45;&gt;node44 -->
<g id="edge27" class="edge">
<title>node17&#45;&gt;node44</title>
<path fill="none" stroke="black" d="M1413.81,-305.81C1404.67,-296.67 1392.85,-284.85 1382.52,-274.52"/>
<polygon fill="black" stroke="black" points="1385.26,-272.31 1375.71,-267.71 1380.31,-277.26 1385.26,-272.31"/>
</g>
<!-- node51 -->
<g id="node32" class="node">
<title>node51</title>
<ellipse fill="none" stroke="black" cx="1499" cy="-250" rx="82" ry="18"/>
<text text-anchor="middle" x="1499" y="-244.57" font-family="Times New Roman,serif" font-size="14.00">IntPrint (width = 0)</text>
</g>
<!-- node17&#45;&gt;node51 -->
<g id="edge31" class="edge">
<title>node17&#45;&gt;node51</title>
<path fill="none" stroke="black" d="M1444.19,-305.81C1452.98,-297.02 1464.27,-285.73 1474.31,-275.69"/>
<polygon fill="black" stroke="black" points="1476.71,-278.24 1481.3,-268.7 1471.76,-273.29 1476.71,-278.24"/>
</g>
<!-- node58 -->
<g id="node37" class="node">
<title>node58</title>
<ellipse fill="none" stroke="black" cx="1681" cy="-250" rx="82" ry="18"/>
<text text-anchor="middle" x="1681" y="-244.57" font-family="Times New Roman,serif" font-size="14.00">IntPrint (width = 0)</text>
</g>
<!-- node17&#45;&gt;node58 -->
<g id="edge36" class="edge">
<title>node17&#45;&gt;node58</title>
<path fill="none" stroke="black" d="M1457.42,-313.11C1496.75,-302.18 1568.78,-282.17 1620.46,-267.82"/>
<polygon fill="black" stroke="black" points="1621.33,-271.21 1630.03,-265.16 1619.46,-264.46 1621.33,-271.21"/>
</g>
<!-- node59 -->
<g id="node42" class="node">
<title>node59</title>
<ellipse fill="none" stroke="black" cx="1831" cy="-250" rx="50.07" ry="18"/>
<text text-anchor="middle" x="1831" y="-244.57" font-family="Times New Roman,serif" font-size="14.00">Semicolon</text>
</g>
<!-- node17&#45;&gt;node59 -->
<g id="edge41" class="edge">
<title>node17&#45;&gt;node59</title>
<path fill="none" stroke="black" d="M1460.93,-317.44C1521.86,-310.35 1658.73,-292.96 1772,-268 1775.59,-267.21 1779.29,-266.32 1782.99,-265.38"/>
<polygon fill="black" stroke="black" points="1783.83,-268.78 1792.58,-262.82 1782.02,-262.02 1783.83,-268.78"/>
</g>
<!-- node60 -->
<g id="node43" class="node">
<title>node60</title>
<ellipse fill="none" stroke="black" cx="1949" cy="-250" rx="50.07" ry="18"/>
<text text-anchor="middle" x="1949" y="-244.57" font-family="Times New Roman,serif" font-size="14.00">Semicolon</text>
</g>
<!-- node17&#45;&gt;node60 -->
<g id="edge42" class="edge">
<title>node17&#45;&gt;node60</title>
<path fill="none" stroke="black" d="M1461.42,-319.13C1537.1,-314.36 1731.02,-299.81 1890,-268 1893.77,-267.25 1897.65,-266.37 1901.54,-265.41"/>
<polygon fill="black" stroke="black" points="1902.16,-268.87 1910.94,-262.95 1900.38,-262.09 1902.16,-268.87"/>
</g>
<!-- node61 -->
<g id="node44" class="node">
<title>node61</title>
<ellipse fill="none" stroke="black" cx="2067" cy="-250" rx="50.07" ry="18"/>
<text text-anchor="middle" x="2067" y="-244.57" font-family="Times New Roman,serif" font-size="14.00">Semicolon</text>
</g>
<!-- node17&#45;&gt;node61 -->
<g id="edge43" class="edge">
<title>node17&#45;&gt;node61</title>
<path fill="none" stroke="black" d="M1461.63,-320.17C1550.22,-317.46 1802.4,-306.67 2008,-268 2011.78,-267.29 2015.67,-266.44 2019.56,-265.51"/>
<polygon fill="black" stroke="black" points="2020.16,-268.97 2028.97,-263.08 2018.41,-262.19 2020.16,-268.97"/>
</g>
<!-- node19 -->
<g id="node14" class="node">
<title>node19</title>
<ellipse fill="none" stroke="black" cx="686" cy="-178" rx="102.46" ry="18"/>
<text text-anchor="middle" x="686" y="-172.57" font-family="Times New Roman,serif" font-size="14.00">Designator (Kind: Static)</text>
</g>
<!-- node23&#45;&gt;node19 -->
<g id="edge13" class="edge">
<title>node23&#45;&gt;node19</title>
<path fill="none" stroke="black" d="M834.58,-235.83C807.35,-225.42 768.89,-210.71 737.93,-198.86"/>
<polygon fill="black" stroke="black" points="739.32,-195.65 728.73,-195.34 736.82,-202.19 739.32,-195.65"/>
</g>
<!-- node22 -->
<g id="node16" class="node">
<title>node22</title>
<ellipse fill="none" stroke="black" cx="869" cy="-178" rx="62.54" ry="18"/>
<text text-anchor="middle" x="869" y="-172.57" font-family="Times New Roman,serif" font-size="14.00">UnaryExpr (&#45;)</text>
</g>
<!-- node23&#45;&gt;node22 -->
<g id="edge15" class="edge">
<title>node23&#45;&gt;node22</title>
<path fill="none" stroke="black" d="M869,-231.7C869,-224.41 869,-215.73 869,-207.54"/>
<polygon fill="black" stroke="black" points="872.5,-207.62 869,-197.62 865.5,-207.62 872.5,-207.62"/>
</g>
<!-- node18 -->
<g id="node15" class="node">
<title>node18</title>
<ellipse fill="none" stroke="black" cx="639" cy="-106" rx="55.06" ry="18"/>
<text text-anchor="middle" x="639" y="-100.58" font-family="Times New Roman,serif" font-size="14.00">Var (global)</text>
</g>
<!-- node19&#45;&gt;node18 -->
<g id="edge14" class="edge">
<title>node19&#45;&gt;node18</title>
<path fill="none" stroke="black" d="M674.38,-159.7C669.01,-151.7 662.51,-142.02 656.56,-133.15"/>
<polygon fill="black" stroke="black" points="659.48,-131.23 651,-124.88 653.67,-135.13 659.48,-131.23"/>
</g>
<!-- node21 -->
<g id="node17" class="node">
<title>node21</title>
<ellipse fill="none" stroke="black" cx="762" cy="-106" rx="49.57" ry="18"/>
<text text-anchor="middle" x="762" y="-100.58" font-family="Times New Roman,serif" font-size="14.00">IntCon (1)</text>
</g>
<!-- node22&#45;&gt;node21 -->
<g id="edge16" class="edge">
<title>node22&#45;&gt;node21</title>
<path fill="none" stroke="black" d="M844.72,-161.12C830.01,-151.5 811.06,-139.1 795.01,-128.59"/>
<polygon fill="black" stroke="black" points="797,-125.71 786.72,-123.17 793.17,-131.57 797,-125.71"/>
</g>
<!-- node25 -->
<g id="node19" class="node">
<title>node25</title>
<ellipse fill="none" stroke="black" cx="1052" cy="-178" rx="102.46" ry="18"/>
<text text-anchor="middle" x="1052" y="-172.57" font-family="Times New Roman,serif" font-size="14.00">Designator (Kind: Local)</text>
</g>
<!-- node31&#45;&gt;node25 -->
<g id="edge18" class="edge">
<title>node31&#45;&gt;node25</title>
<path fill="none" stroke="black" d="M1037.7,-231.7C1039.72,-224.24 1042.14,-215.32 1044.41,-206.97"/>
<polygon fill="black" stroke="black" points="1047.72,-208.13 1046.96,-197.57 1040.96,-206.3 1047.72,-208.13"/>
</g>
<!-- node30 -->
<g id="node21" class="node">
<title>node30</title>
<ellipse fill="none" stroke="black" cx="1221" cy="-178" rx="48.57" ry="18"/>
<text text-anchor="middle" x="1221" y="-172.57" font-family="Times New Roman,serif" font-size="14.00">NewArray</text>
</g>
<!-- node31&#45;&gt;node30 -->
<g id="edge20" class="edge">
<title>node31&#45;&gt;node30</title>
<path fill="none" stroke="black" d="M1067.92,-236C1098.64,-224.56 1143.52,-207.85 1176.75,-195.48"/>
<polygon fill="black" stroke="black" points="1177.96,-198.76 1186.11,-191.99 1175.52,-192.2 1177.96,-198.76"/>
</g>
<!-- node24 -->
<g id="node20" class="node">
<title>node24</title>
<ellipse fill="none" stroke="black" cx="891" cy="-106" rx="61.04" ry="18"/>
<text text-anchor="middle" x="891" y="-100.58" font-family="Times New Roman,serif" font-size="14.00">Var (arr [arr])</text>
</g>
<!-- node25&#45;&gt;node24 -->
<g id="edge19" class="edge">
<title>node25&#45;&gt;node24</title>
<path fill="none" stroke="black" d="M1014.66,-160.76C990.76,-150.37 959.66,-136.85 934.63,-125.97"/>
<polygon fill="black" stroke="black" points="936.26,-122.86 925.7,-122.09 933.47,-129.28 936.26,-122.86"/>
</g>
<!-- node27 -->
<g id="node22" class="node">
<title>node27</title>
<ellipse fill="none" stroke="black" cx="1018" cy="-106" rx="47.57" ry="18"/>
<text text-anchor="middle" x="1018" y="-100.58" font-family="Times New Roman,serif" font-size="14.00">Type (int)</text>
</g>
<!-- node30&#45;&gt;node27 -->
<g id="edge21" class="edge">
<title>node30&#45;&gt;node27</title>
<path fill="none" stroke="black" d="M1186.56,-165.13C1152.49,-153.37 1100.15,-135.33 1062.84,-122.46"/>
<polygon fill="black" stroke="black" points="1064.29,-119.26 1053.7,-119.31 1062.01,-125.88 1064.29,-119.26"/>
</g>
<!-- node29 -->
<g id="node23" class="node">
<title>node29</title>
<ellipse fill="none" stroke="black" cx="1133" cy="-106" rx="49.57" ry="18"/>
<text text-anchor="middle" x="1133" y="-100.58" font-family="Times New Roman,serif" font-size="14.00">IntCon (2)</text>
</g>
<!-- node30&#45;&gt;node29 -->
<g id="edge22" class="edge">
<title>node30&#45;&gt;node29</title>
<path fill="none" stroke="black" d="M1201.03,-161.12C1189.44,-151.9 1174.65,-140.13 1161.81,-129.92"/>
<polygon fill="black" stroke="black" points="1164.08,-127.25 1154.07,-123.76 1159.72,-132.73 1164.08,-127.25"/>
</g>
<!-- node33 -->
<g id="node25" class="node">
<title>node33</title>
<ellipse fill="none" stroke="black" cx="1388" cy="-178" rx="99.97" ry="18"/>
<text text-anchor="middle" x="1388" y="-172.57" font-family="Times New Roman,serif" font-size="14.00">Designator (Kind: Elem)</text>
</g>
<!-- node39&#45;&gt;node33 -->
<g id="edge24" class="edge">
<title>node39&#45;&gt;node33</title>
<path fill="none" stroke="black" d="M1244.52,-233.29C1271.44,-223.1 1306.74,-209.75 1335.59,-198.83"/>
<polygon fill="black" stroke="black" points="1336.77,-202.13 1344.89,-195.31 1334.29,-195.58 1336.77,-202.13"/>
</g>
<!-- node32 -->
<g id="node26" class="node">
<title>node32</title>
<ellipse fill="none" stroke="black" cx="1262" cy="-106" rx="61.04" ry="18"/>
<text text-anchor="middle" x="1262" y="-100.58" font-family="Times New Roman,serif" font-size="14.00">Var (arr [arr])</text>
</g>
<!-- node33&#45;&gt;node32 -->
<g id="edge25" class="edge">
<title>node33&#45;&gt;node32</title>
<path fill="none" stroke="black" d="M1358.14,-160.41C1340.58,-150.65 1318.21,-138.23 1299.48,-127.82"/>
<polygon fill="black" stroke="black" points="1301.26,-124.81 1290.82,-123.01 1297.86,-130.93 1301.26,-124.81"/>
</g>
<!-- node37 -->
<g id="node27" class="node">
<title>node37</title>
<ellipse fill="none" stroke="black" cx="1382" cy="-106" rx="40.58" ry="18"/>
<text text-anchor="middle" x="1382" y="-100.58" font-family="Times New Roman,serif" font-size="14.00">Call foo</text>
</g>
<!-- node33&#45;&gt;node37 -->
<g id="edge26" class="edge">
<title>node33&#45;&gt;node37</title>
<path fill="none" stroke="black" d="M1386.52,-159.7C1385.89,-152.41 1385.15,-143.73 1384.45,-135.54"/>
<polygon fill="black" stroke="black" points="1387.94,-135.28 1383.6,-125.61 1380.96,-135.87 1387.94,-135.28"/>
</g>
<!-- node41 -->
<g id="node29" class="node">
<title>node41</title>
<ellipse fill="none" stroke="black" cx="1606" cy="-178" rx="99.97" ry="18"/>
<text text-anchor="middle" x="1606" y="-172.57" font-family="Times New Roman,serif" font-size="14.00">Designator (Kind: Elem)</text>
</g>
<!-- node44&#45;&gt;node41 -->
<g id="edge28" class="edge">
<title>node44&#45;&gt;node41</title>
<path fill="none" stroke="black" d="M1389.73,-237.96C1395.76,-235.9 1402.06,-233.82 1408,-232 1450.88,-218.84 1499.54,-205.79 1537.89,-195.93"/>
<polygon fill="black" stroke="black" points="1538.64,-199.35 1547.47,-193.48 1536.91,-192.57 1538.64,-199.35"/>
</g>
<!-- node40 -->
<g id="node30" class="node">
<title>node40</title>
<ellipse fill="none" stroke="black" cx="1502" cy="-106" rx="61.04" ry="18"/>
<text text-anchor="middle" x="1502" y="-100.58" font-family="Times New Roman,serif" font-size="14.00">Var (arr [arr])</text>
</g>
<!-- node41&#45;&gt;node40 -->
<g id="edge29" class="edge">
<title>node41&#45;&gt;node40</title>
<path fill="none" stroke="black" d="M1581.09,-160.23C1567.29,-150.94 1549.95,-139.28 1535.03,-129.23"/>
<polygon fill="black" stroke="black" points="1537.14,-126.43 1526.89,-123.75 1533.23,-132.24 1537.14,-126.43"/>
</g>
<!-- node43 -->
<g id="node31" class="node">
<title>node43</title>
<ellipse fill="none" stroke="black" cx="1631" cy="-106" rx="49.57" ry="18"/>
<text text-anchor="middle" x="1631" y="-100.58" font-family="Times New Roman,serif" font-size="14.00">IntCon (0)</text>
</g>
<!-- node41&#45;&gt;node43 -->
<g id="edge30" class="edge">
<title>node41&#45;&gt;node43</title>
<path fill="none" stroke="black" d="M1612.18,-159.7C1614.87,-152.15 1618.1,-143.12 1621.11,-134.68"/>
<polygon fill="black" stroke="black" points="1624.31,-136.12 1624.38,-125.53 1617.72,-133.77 1624.31,-136.12"/>
</g>
<!-- node50 -->
<g id="node33" class="node">
<title>node50</title>
<ellipse fill="none" stroke="black" cx="1786" cy="-178" rx="48.57" ry="18"/>
<text text-anchor="middle" x="1786" y="-172.57" font-family="Times New Roman,serif" font-size="14.00">LoadElem</text>
</g>
<!-- node51&#45;&gt;node50 -->
<g id="edge32" class="edge">
<title>node51&#45;&gt;node50</title>
<path fill="none" stroke="black" d="M1552.31,-236C1604.61,-223.24 1683.78,-203.93 1735.19,-191.39"/>
<polygon fill="black" stroke="black" points="1736,-194.8 1744.89,-189.03 1734.34,-188 1736,-194.8"/>
</g>
<!-- node47 -->
<g id="node34" class="node">
<title>node47</title>
<ellipse fill="none" stroke="black" cx="1799" cy="-106" rx="99.97" ry="18"/>
<text text-anchor="middle" x="1799" y="-100.58" font-family="Times New Roman,serif" font-size="14.00">Designator (Kind: Elem)</text>
</g>
<!-- node50&#45;&gt;node47 -->
<g id="edge33" class="edge">
<title>node50&#45;&gt;node47</title>
<path fill="none" stroke="black" d="M1789.21,-159.7C1790.58,-152.32 1792.22,-143.52 1793.75,-135.25"/>
<polygon fill="black" stroke="black" points="1797.16,-136.06 1795.55,-125.59 1790.28,-134.79 1797.16,-136.06"/>
</g>
<!-- node46 -->
<g id="node35" class="node">
<title>node46</title>
<ellipse fill="none" stroke="black" cx="1672" cy="-34" rx="61.04" ry="18"/>
<text text-anchor="middle" x="1672" y="-28.57" font-family="Times New Roman,serif" font-size="14.00">Var (arr [arr])</text>
</g>
<!-- node47&#45;&gt;node46 -->
<g id="edge34" class="edge">
<title>node47&#45;&gt;node46</title>
<path fill="none" stroke="black" d="M1768.9,-88.41C1751.2,-78.65 1728.66,-66.23 1709.77,-55.82"/>
<polygon fill="black" stroke="black" points="1711.48,-52.77 1701.04,-51 1708.11,-58.9 1711.48,-52.77"/>
</g>
<!-- node49 -->
<g id="node36" class="node">
<title>node49</title>
<ellipse fill="none" stroke="black" cx="1801" cy="-34" rx="49.57" ry="18"/>
<text text-anchor="middle" x="1801" y="-28.57" font-family="Times New Roman,serif" font-size="14.00">IntCon (0)</text>
</g>
<!-- node47&#45;&gt;node49 -->
<g id="edge35" class="edge">
<title>node47&#45;&gt;node49</title>
<path fill="none" stroke="black" d="M1799.49,-87.7C1799.7,-80.41 1799.95,-71.73 1800.18,-63.54"/>
<polygon fill="black" stroke="black" points="1803.68,-63.71 1800.47,-53.62 1796.68,-63.51 1803.68,-63.71"/>
</g>
<!-- node57 -->
<g id="node38" class="node">
<title>node57</title>
<ellipse fill="none" stroke="black" cx="1959" cy="-178" rx="48.57" ry="18"/>
<text text-anchor="middle" x="1959" y="-172.57" font-family="Times New Roman,serif" font-size="14.00">LoadElem</text>
</g>
<!-- node58&#45;&gt;node57 -->
<g id="edge37" class="edge">
<title>node58&#45;&gt;node57</title>
<path fill="none" stroke="black" d="M1733.62,-235.75C1783.85,-223.1 1859.03,-204.17 1908.54,-191.71"/>
<polygon fill="black" stroke="black" points="1909.31,-195.12 1918.15,-189.29 1907.6,-188.33 1909.31,-195.12"/>
</g>
<!-- node54 -->
<g id="node39" class="node">
<title>node54</title>
<ellipse fill="none" stroke="black" cx="2017" cy="-106" rx="99.97" ry="18"/>
<text text-anchor="middle" x="2017" y="-100.58" font-family="Times New Roman,serif" font-size="14.00">Designator (Kind: Elem)</text>
</g>
<!-- node57&#45;&gt;node54 -->
<g id="edge38" class="edge">
<title>node57&#45;&gt;node54</title>
<path fill="none" stroke="black" d="M1972.75,-160.41C1979.58,-152.16 1987.99,-142.01 1995.64,-132.78"/>
<polygon fill="black" stroke="black" points="1998.3,-135.05 2001.98,-125.12 1992.91,-130.59 1998.3,-135.05"/>
</g>
<!-- node53 -->
<g id="node40" class="node">
<title>node53</title>
<ellipse fill="none" stroke="black" cx="1935" cy="-34" rx="61.04" ry="18"/>
<text text-anchor="middle" x="1935" y="-28.57" font-family="Times New Roman,serif" font-size="14.00">Var (arr [arr])</text>
</g>
<!-- node54&#45;&gt;node53 -->
<g id="edge39" class="edge">
<title>node54&#45;&gt;node53</title>
<path fill="none" stroke="black" d="M1997.15,-88.05C1986.9,-79.31 1974.23,-68.49 1963,-58.9"/>
<polygon fill="black" stroke="black" points="1965.41,-56.36 1955.54,-52.53 1960.87,-61.68 1965.41,-56.36"/>
</g>
<!-- node56 -->
<g id="node41" class="node">
<title>node56</title>
<ellipse fill="none" stroke="black" cx="2064" cy="-34" rx="49.57" ry="18"/>
<text text-anchor="middle" x="2064" y="-28.57" font-family="Times New Roman,serif" font-size="14.00">IntCon (1)</text>
</g>
<!-- node54&#45;&gt;node56 -->
<g id="edge40" class="edge">
<title>node54&#45;&gt;node56</title>
<path fill="none" stroke="black" d="M2028.62,-87.7C2033.99,-79.7 2040.49,-70.02 2046.44,-61.15"/>
<polygon fill="black" stroke="black" points="2049.33,-63.13 2052,-52.88 2043.52,-59.23 2049.33,-63.13"/>
</g>
</g>
</svg>
